<svg xmlns="http://www.w3.org/2000/svg" width="24" height="28" viewBox="0 0 24 28"><g><g><path fill="#fff" d="M17.829 6.26c3.267 0 5.355 3.138 5.355 3.138s-3.186 1.717-3.186 5.445c0 4.425 4.003 5.713 4.003 5.713s-3.16 7.443-6.708 7.443c-1.995 0-2.129-1.14-4.78-1.14-2.302 0-3.079 1.14-4.833 1.14-3.347 0-7.671-7.255-7.671-13.156 0-6.129 4.378-8.583 7.122-8.583 2.41 0 3.415 1.408 5.356 1.408 1.633 0 2.919-1.408 5.342-1.408zM17.267.01c.482 3.005-2.263 6.72-5.543 6.599C11.242 2.786 14.776.212 17.267.01z"/></g></g></svg>