<svg xmlns="http://www.w3.org/2000/svg" width="41" height="47" viewBox="0 0 41 47"><defs><clipPath id="403ra"><path fill="#fff" d="M20.5 10C30.165 10 38 17.835 38 27.5S30.165 45 20.5 45 3 37.165 3 27.5 10.835 10 20.5 10z"/></clipPath><clipPath id="403rb"><path fill="#fff" d="M12.542 42.43a1.47 1.47 0 0 1 0 2.07l-2.057 2.07a1.448 1.448 0 0 1-2.057 0 1.47 1.47 0 0 1 0-2.07l2.057-2.07a1.449 1.449 0 0 1 2.057 0z"/></clipPath><clipPath id="403rc"><path fill="#fff" d="M28.458 42.427a1.455 1.455 0 0 0 0 2.057l2.057 2.058a1.454 1.454 0 1 0 2.057-2.058l-2.057-2.057a1.455 1.455 0 0 0-2.057 0z"/></clipPath><clipPath id="403rd"><path fill="#fff" d="M20.484 20.996c.815 0 1.475.625 1.475 1.397v3.63h6.56c.814 0 1.475.664 1.475 1.482 0 .82-.66 1.483-1.475 1.483h-8.035c-.814 0-1.475-.624-1.475-1.396l.001-.042v-5.157c0-.772.66-1.397 1.474-1.397z"/></clipPath></defs><g><g><path fill="none" stroke="#267df4" stroke-miterlimit="50" stroke-width="6" d="M20.5 10C30.165 10 38 17.835 38 27.5S30.165 45 20.5 45 3 37.165 3 27.5 10.835 10 20.5 10z" clip-path="url(&quot;#403ra&quot;)"/></g><g><path fill="none" stroke="#267df4" stroke-miterlimit="50" stroke-width="3" d="M3.336 15.015c-.05-.079-.105-.153-.153-.235C.78 10.65 2.122 5.417 6.18 3.093c4.058-2.325 9.295-.862 11.698 3.269.048.081.084.165.128.248 0 0-4.387.94-7.907 2.957-3.804 2.18-6.762 5.448-6.762 5.448z"/></g><g><path fill="none" stroke="#267df4" stroke-miterlimit="50" stroke-width="3" d="M37.664 15.015c.05-.079.105-.153.153-.235 2.403-4.13 1.061-9.363-2.996-11.687-4.058-2.325-9.295-.862-11.698 3.269-.047.081-.084.165-.128.248 0 0 4.387.94 7.907 2.957 3.804 2.18 6.762 5.448 6.762 5.448z"/></g><g><path fill="none" stroke="#267df4" stroke-miterlimit="50" stroke-width="6" d="M12.542 42.43a1.47 1.47 0 0 1 0 2.07l-2.057 2.07a1.448 1.448 0 0 1-2.057 0 1.47 1.47 0 0 1 0-2.07l2.057-2.07a1.449 1.449 0 0 1 2.057 0z" clip-path="url(&quot;#403rb&quot;)"/></g><g><path fill="none" stroke="#267df4" stroke-miterlimit="50" stroke-width="6" d="M28.458 42.427a1.455 1.455 0 0 0 0 2.057l2.057 2.058a1.454 1.454 0 1 0 2.057-2.058l-2.057-2.057a1.455 1.455 0 0 0-2.057 0z" clip-path="url(&quot;#403rc&quot;)"/></g><g><path fill="none" stroke="#267df4" stroke-miterlimit="50" stroke-width="6" d="M20.484 20.996c.815 0 1.475.625 1.475 1.397v3.63h6.56c.814 0 1.475.664 1.475 1.482 0 .82-.66 1.483-1.475 1.483h-8.035c-.814 0-1.475-.624-1.475-1.396l.001-.042v-5.157c0-.772.66-1.397 1.474-1.397z" clip-path="url(&quot;#403rd&quot;)"/></g></g></svg>