<svg xmlns="http://www.w3.org/2000/svg" width="42" height="51" viewBox="0 0 42 51"><defs><clipPath id="wmy5a"><path fill="#fff" d="M4 20h34a4 4 0 0 1 4 4v23a4 4 0 0 1-4 4H4a4 4 0 0 1-4-4V24a4 4 0 0 1 4-4z"/></clipPath><clipPath id="wmy5b"><path fill="#fff" d="M20 0h2c8.284 0 15 6.715 15 15v8H5v-8C5 6.715 11.716 0 20 0z"/></clipPath><clipPath id="wmy5c"><path fill="#fff" d="M21 5c6.075 0 11 4.925 11 11v7H10v-7c0-6.075 4.925-11 11-11z"/></clipPath><clipPath id="wmy5d"><path fill="#fff" d="M13.575 33.354a1.5 1.5 0 0 1 2.122 0l3.889 3.888 6.717-6.717a1.5 1.5 0 0 1 2.122 2.121l-7.778 7.778a1.5 1.5 0 0 1-2.122 0l-4.95-4.949a1.5 1.5 0 0 1 0-2.121z"/></clipPath></defs><g><g><path fill="none" stroke="#267df4" stroke-miterlimit="50" stroke-width="6" d="M4 20h34a4 4 0 0 1 4 4v23a4 4 0 0 1-4 4H4a4 4 0 0 1-4-4V24a4 4 0 0 1 4-4z" clip-path="url(&quot;#wmy5a&quot;)"/></g><g><path fill="none" stroke="#267df4" stroke-miterlimit="50" stroke-width="6" d="M20 0h2c8.284 0 15 6.715 15 15v8H5v0-8C5 6.715 11.716 0 20 0z" clip-path="url(&quot;#wmy5b&quot;)"/></g><g><path fill="none" stroke="#267df4" stroke-miterlimit="50" stroke-width="6" d="M21 5c6.075 0 11 4.925 11 11v7H10v0-7c0-6.075 4.925-11 11-11z" clip-path="url(&quot;#wmy5c&quot;)"/></g><g><path fill="none" stroke="#267df4" stroke-miterlimit="50" stroke-width="6" d="M13.575 33.354a1.5 1.5 0 0 1 2.122 0l3.889 3.888 6.717-6.717a1.5 1.5 0 0 1 2.122 2.121l-7.778 7.778s0 0 0 0a1.5 1.5 0 0 1-2.122 0s0 0 0 0l-4.95-4.949a1.5 1.5 0 0 1 0-2.121z" clip-path="url(&quot;#wmy5d&quot;)"/></g></g></svg>